<svg width="137" height="28" viewBox="0 0 137 28" fill="none" xmlns="http://www.w3.org/2000/svg">
<rect width="137" height="28" fill="#E5E5E5"/>
<rect width="1440" height="5540" transform="translate(-652 -19)" fill="#F1E9E7"/>
<path d="M9.26062 24.2962C6.70284 24.2962 4.80986 21.8551 4.80986 18.0489C4.80986 14.0459 6.81552 11.7437 9.18174 11.7437C10.4775 11.7437 12.0099 12.5651 12.9114 14.0691V22.0981C12.0325 23.4632 10.6353 24.2962 9.26062 24.2962ZM12.9114 0.41748V9.96203C11.7733 8.78198 10.2634 7.99528 8.48314 7.99528C4.12253 7.98371 0.291504 11.9519 0.291504 18.2687C0.291504 23.7062 3.34506 27.9752 8.23525 27.9752C10.0944 27.9752 11.7733 27.1191 13.2043 25.592L14.7367 27.6166H17.3058V0.41748H12.9114ZM70.1176 0.41748V27.6166H67.7739L65.7119 25.4878V0.41748H70.1176ZM58.9062 0.41748V25.4878L60.9682 27.6166H63.3119V0.41748H58.9062ZM45.9821 15.7697H53.3174C53.1822 13.051 51.8076 11.3966 49.7681 11.3966C47.6948 11.385 46.2075 13.1551 45.9821 15.7697ZM57.2837 24.8515C55.8865 26.5406 53.5991 27.9752 50.6244 27.9752C45.3512 27.9752 41.5427 24.2037 41.5427 17.991C41.5427 12.0213 44.968 7.98371 49.6103 7.98371C54.6583 7.98371 57.9034 12.1717 57.2724 18.6736H46.0272C46.0272 18.7314 46.0272 18.7777 46.0272 18.8356C46.0272 22.0287 47.8864 24.1921 50.7146 24.1921C52.247 24.1921 53.678 23.6136 54.8386 22.4799L57.2837 24.8515ZM37.7905 8.36549L34.9848 21.8551L31.9989 8.36549H27.7172L28.6411 11.7321L25.8467 21.913L22.8495 8.36549H18.5678L23.8411 27.6166H27.5256L30.3313 17.9563L32.9792 27.6166H36.9567L42.0497 8.36549H37.7905Z" fill="#2D2D2D"/>
<path d="M79.3119 8.76837H81.0071L82.3984 4.6297L83.7779 8.76837H85.4732L87.4957 2.68897C87.5659 2.47852 87.6243 2.40838 87.7763 2.22132L88.9922 0.724852V0.549485H85.9057V0.724852L86.8293 2.29147C86.8878 2.40838 86.8995 2.45514 86.8527 2.59544L85.5784 6.4769L84.1053 1.82382C84.0702 1.70691 84.0702 1.64845 84.1287 1.55492L84.6665 0.724852V0.549485H80.9253V0.724852L81.3345 1.59C81.3929 1.70691 81.4982 1.91735 81.5683 2.1161L82.071 3.64764L81.124 6.4769L79.5457 1.82382C79.499 1.70691 79.5107 1.64845 79.5691 1.55492L80.1069 0.724852V0.549485H76.2722V0.724852L76.8334 1.7186C76.9269 1.89397 76.9386 1.91735 77.0088 2.1161L79.3119 8.76837Z" fill="#FFF"/>
<path d="M89.4005 1.14573C89.4005 1.83551 89.9383 2.29147 90.5696 2.29147C91.2009 2.29147 91.7153 1.83551 91.7153 1.14573C91.7153 0.444264 91.2009 0 90.5696 0C89.9383 0 89.4005 0.444264 89.4005 1.14573ZM89.4355 7.80969C89.4355 7.93829 89.4355 7.97337 89.3537 8.05521L88.8627 8.60469V8.76837H92.2648V8.60469L91.7738 8.05521C91.6919 7.97337 91.6919 7.93829 91.6919 7.80969V2.99294H88.8627V3.15661L89.3537 3.81132C89.4239 3.90485 89.4355 3.93992 89.4355 4.08021V7.80969Z" fill="#FFF"/>
<path d="M100.188 8.76837V8.60469L99.6972 8.05521C99.6153 7.97337 99.6153 7.93829 99.6153 7.82138C99.6153 7.63433 99.6504 5.98587 99.6504 5.54161C99.6504 3.77624 99.0775 2.85264 97.6746 2.85264C96.5873 2.85264 95.9677 3.40213 95.5936 4.11529V2.99294H92.8929V3.15661L93.384 3.81132C93.4541 3.90485 93.4658 3.93992 93.4658 4.08021V7.80969C93.4658 7.93829 93.4658 7.97337 93.384 8.05521L92.8929 8.60469V8.76837H96.2951V8.60469L95.804 8.05521C95.7222 7.97337 95.7222 7.93829 95.7222 7.80969V4.67646C95.9677 4.22051 96.2717 4.03345 96.6224 4.03345C97.1368 4.03345 97.394 4.40757 97.394 5.33117C97.394 6.17293 97.3589 7.58756 97.3589 7.80969C97.3589 7.93829 97.3589 7.97337 97.2771 8.05521L96.7861 8.60469V8.76837H100.188Z" fill="#FFF"/>
<path d="M106.595 6.05602C106.607 5.88065 106.607 5.72867 106.607 5.5533C106.607 3.61257 105.344 2.85264 103.696 2.85264C101.977 2.85264 100.633 3.84639 100.633 5.91572C100.633 7.93829 101.954 8.90866 103.696 8.90866C105.286 8.90866 106.186 8.18381 106.537 6.8744L106.361 6.80425C105.917 7.34205 105.333 7.55249 104.608 7.55249C103.778 7.55249 103.076 7.10822 102.971 6.05602H106.595ZM103.684 3.46058C104.198 3.46058 104.456 3.93992 104.456 5.47146H102.948C102.948 3.95161 103.193 3.46058 103.684 3.46058Z" fill="#FFF"/>
<path d="M114.23 8.94373C114.932 8.94373 115.996 8.8502 116.849 8.65145V5.62345H116.674L114.593 8.16043C114.499 8.27734 114.441 8.30072 114.289 8.30072H114.207C113.143 8.30072 112.792 6.95624 112.792 4.6297C112.792 2.31485 113.143 1.01713 114.207 1.01713H114.289C114.441 1.01713 114.499 1.04051 114.593 1.15742L116.592 3.58919H116.767V0.654705C115.949 0.432573 114.803 0.374117 114.265 0.374117C111.272 0.374117 109.916 2.23301 109.916 4.69984C109.916 7.02638 111.109 8.94373 114.23 8.94373Z" fill="#FFF"/>
<path d="M121.239 8.76837V8.60469L120.748 8.05521C120.666 7.97337 120.666 7.93829 120.666 7.80969V0L117.837 0.3975V0.561176L118.328 1.12235C118.41 1.21588 118.41 1.25095 118.41 1.39125V7.80969C118.41 7.93829 118.41 7.97337 118.328 8.05521L117.837 8.60469V8.76837H121.239Z" fill="#FFF"/>
<path d="M128.838 8.76837V8.60469L128.347 8.05521C128.265 7.97337 128.265 7.93829 128.265 7.80969V2.99294H125.435V3.15661L125.926 3.81132C125.997 3.90485 126.008 3.95161 126.008 4.06852V7.07315C125.798 7.48234 125.506 7.72785 125.143 7.72785C124.559 7.72785 124.442 7.06146 124.442 6.12617C124.442 5.83389 124.453 4.6297 124.453 2.99294H121.636V3.15661L122.127 3.81132C122.197 3.90485 122.209 3.95161 122.209 4.06852C122.209 4.2322 122.185 5.86896 122.185 6.32492C122.185 8.05521 122.7 8.90866 124.091 8.90866C125.026 8.90866 125.739 8.49947 126.137 7.63433V8.76837H128.838Z" fill="#FFF"/>
<path d="M129.777 8.90866H129.941L131.905 8.31241C132.209 8.63976 132.759 8.90866 133.495 8.90866C135.027 8.90866 136.091 7.75124 136.091 5.71698C136.091 3.78793 135.144 2.85264 133.811 2.85264C133.074 2.85264 132.501 3.13323 132.034 3.74117V0L129.205 0.3975V0.561176L129.696 1.12235C129.766 1.21588 129.777 1.25095 129.777 1.39125V8.90866ZM132.759 4.01007C133.238 4.01007 133.717 4.39587 133.717 5.9508C133.717 7.65771 133.168 8.0669 132.665 8.0669C132.373 8.0669 132.162 7.9266 132.034 7.71616V4.43095C132.221 4.15036 132.466 4.01007 132.759 4.01007Z" fill="#FFF"/>
</svg>
